<?xml version="1.0" standalone="no"?>
<!DOCTYPE svg PUBLIC "-//W3C//DTD SVG 20010904//EN"
 "http://www.w3.org/TR/2001/REC-SVG-20010904/DTD/svg10.dtd">
<svg version="1.0" xmlns="http://www.w3.org/2000/svg"
 width="1500.000000pt" height="1500.000000pt" viewBox="0 0 1500.000000 1500.000000"
 preserveAspectRatio="xMidYMid meet">
<metadata>
Created by potrace 1.14, written by Peter Selinger 2001-2017
</metadata>
<g transform="translate(0.000000,1500.000000) scale(0.100000,-0.100000)"
fill="#000000" stroke="none">
<path d="M4500 10700 l0 -769 1843 -4 c1833 -3 1843 -3 1952 -24 280 -55 458
-141 593 -288 215 -235 242 -677 57 -955 -108 -162 -293 -273 -567 -340 -245
-60 -249 -60 -2149 -60 l-1729 0 0 -2370 0 -2370 1998 0 c2047 0 2202 3 2492
40 1330 173 2107 813 2236 1840 18 148 18 461 -1 622 -82 701 -440 1175 -1145
1515 -74 36 -173 81 -220 100 -47 19 -86 36 -88 38 -1 1 48 34 111 73 162 102
286 200 412 327 138 139 227 263 314 437 139 277 191 518 191 885 0 478 -109
830 -361 1168 -319 428 -863 728 -1529 844 -347 60 -380 61 -2481 61 l-1929 0
0 -770z m985 542 c66 -32 118 -84 146 -146 19 -46 99 -529 99 -604 0 -105 -65
-208 -164 -260 -68 -36 -186 -38 -257 -5 -57 26 -118 85 -143 138 -20 40 -106
546 -106 621 -1 203 236 345 425 256z m613 12 l22 -15 0 -509 0 -509 -22 -15
c-12 -9 -34 -16 -48 -16 -14 0 -36 7 -48 16 l-22 15 0 509 0 509 22 15 c12 9
34 16 48 16 14 0 36 -7 48 -16z m799 -29 c64 -19 136 -82 171 -149 23 -43 27
-63 26 -131 0 -70 -9 -110 -71 -316 -39 -129 -78 -251 -86 -270 -35 -85 -125
-153 -226 -170 -53 -10 -70 -8 -129 10 -126 38 -203 133 -210 262 -4 59 4 93
72 324 42 142 83 272 90 290 28 67 104 131 186 156 42 12 124 10 177 -6z m662
-39 l23 -24 -66 -493 c-47 -353 -70 -498 -81 -508 -21 -21 -80 -19 -105 4 -11
10 -20 30 -20 44 0 14 29 239 64 500 70 517 65 501 131 501 20 0 40 -9 54 -24z
m581 8 c37 -11 68 -30 105 -65 85 -80 93 -108 116 -407 11 -141 18 -285 16
-318 -6 -80 -46 -155 -110 -206 -58 -45 -110 -62 -197 -62 -78 -1 -144 27
-201 86 -70 72 -77 100 -99 385 -11 142 -20 281 -20 309 0 131 89 245 220 280
62 17 107 17 170 -2z m-3352 -22 c13 -13 39 -135 105 -487 48 -259 88 -482 87
-497 0 -51 -88 -80 -122 -40 -24 26 -201 978 -187 1004 20 38 88 49 117 20z
m4132 -32 c43 -23 43 -29 -30 -527 -39 -263 -73 -485 -75 -494 -3 -9 -16 -22
-30 -29 -20 -11 -31 -11 -62 1 -35 14 -38 18 -40 59 -2 25 28 254 65 509 58
390 72 466 87 478 22 16 59 17 85 3z m610 -155 c81 -17 172 -92 205 -171 30
-73 155 -538 155 -579 0 -117 -80 -235 -188 -275 -87 -33 -168 -30 -247 9
-107 53 -120 79 -216 417 -69 245 -81 296 -76 340 10 92 78 193 159 235 38 19
130 39 158 33 8 -1 31 -6 50 -9z m553 -242 c8 -10 120 -205 247 -433 150 -268
233 -425 233 -444 0 -19 -8 -36 -22 -48 -26 -21 -84 -24 -99 -5 -25 31 -482
861 -482 876 0 53 88 92 123 54z m-646 -1078 c169 -206 312 -386 317 -399 19
-50 -39 -109 -89 -90 -14 5 -155 168 -335 387 -231 282 -310 385 -310 405 0
37 37 72 76 72 31 0 50 -21 341 -375z m948 -29 c68 -31 141 -113 160 -180 12
-40 16 -120 18 -352 2 -293 2 -300 -21 -345 -113 -230 -441 -224 -545 10 -18
41 -21 77 -28 341 -8 260 -7 301 8 348 21 68 86 142 155 176 71 36 180 37 253
2z m-920 -561 c132 -21 234 -145 235 -285 0 -81 -95 -560 -121 -612 -83 -163
-297 -214 -441 -105 -58 44 -104 115 -118 183 -11 51 -8 75 45 342 55 283 73
341 118 390 47 51 172 105 222 97 11 -2 38 -7 60 -10z m539 -646 c16 -13 26
-30 26 -46 0 -17 -93 -177 -252 -436 -138 -225 -257 -415 -265 -423 -37 -36
-130 10 -121 60 5 22 485 812 516 849 20 23 63 22 96 -4z m-3723 -336 c62 -28
116 -77 144 -133 32 -64 139 -537 139 -616 0 -46 -7 -75 -28 -117 -110 -225
-439 -226 -537 -3 -17 40 -124 499 -136 581 -11 82 44 203 118 258 78 57 208
70 300 30z m659 -53 c19 -19 20 -33 20 -515 0 -482 -1 -496 -20 -515 -12 -12
-33 -20 -55 -20 -22 0 -43 8 -55 20 -19 19 -20 33 -20 515 0 482 1 496 20 515
12 12 33 20 55 20 22 0 43 -8 55 -20z m570 3 c70 -22 150 -96 179 -163 18 -43
25 -95 42 -323 11 -150 18 -292 15 -315 -9 -64 -39 -125 -86 -172 -58 -58
-118 -82 -210 -84 -63 -1 -84 4 -132 27 -31 15 -71 44 -89 64 -62 71 -70 103
-91 387 -27 369 -23 406 59 497 79 88 199 119 313 82z m1272 1 c53 -18 120
-72 152 -123 13 -20 69 -148 125 -285 96 -231 103 -253 103 -316 0 -114 -61
-213 -166 -268 -43 -22 -64 -27 -131 -27 -67 0 -88 5 -130 27 -59 31 -105 77
-133 133 -11 22 -64 146 -118 275 -92 220 -98 240 -98 305 -1 57 4 80 27 127
66 134 228 201 369 152z m-778 -16 c8 -13 62 -238 121 -500 115 -515 114 -506
55 -527 -38 -13 -77 0 -90 31 -6 13 -55 226 -110 473 -55 248 -102 460 -105
473 -14 57 97 100 129 50z m-2964 1 c67 -20 132 -78 169 -150 l33 -66 -1 -272
c-2 -345 -11 -397 -84 -478 -59 -65 -117 -88 -222 -88 -69 0 -98 5 -125 19
-70 37 -109 77 -141 142 l-32 65 6 303 c4 189 11 315 19 337 28 83 99 156 181
186 42 15 149 16 197 2z m680 -239 c11 -11 20 -28 20 -39 0 -10 -54 -227 -120
-482 -66 -255 -120 -465 -120 -466 0 -1 -7 -9 -16 -17 -36 -36 -124 -6 -124
42 0 11 54 227 120 482 66 255 120 465 120 466 0 2 7 10 16 18 22 23 80 20
104 -4z m4078 -481 c71 -35 122 -92 146 -167 26 -81 99 -561 92 -609 -26 -193
-241 -312 -417 -231 -66 30 -125 86 -149 142 -10 23 -39 171 -65 330 -41 253
-45 294 -35 333 16 68 44 115 89 156 52 47 89 65 153 76 71 12 111 5 186 -30z
m388 -74 c37 -25 789 -817 797 -838 18 -47 -36 -104 -87 -91 -22 5 -774 779
-808 832 -23 35 -23 54 3 86 23 30 63 34 95 11z m-4077 -350 c8 -8 14 -29 14
-47 -2 -53 -143 -941 -153 -965 -18 -43 -97 -42 -125 0 -13 21 -8 67 61 507
72 464 76 486 101 508 29 26 75 25 102 -3z m2558 -122 c368 -71 599 -199 727
-407 143 -230 152 -604 20 -842 -119 -215 -328 -350 -648 -419 -201 -43 -275
-45 -1448 -45 l-1118 0 0 870 0 871 1178 -4 c1155 -3 1179 -3 1289 -24z
m-3843 -22 c14 -16 28 -110 71 -508 53 -475 54 -489 36 -513 -12 -17 -29 -26
-54 -28 -71 -6 -67 -19 -125 514 -29 263 -52 487 -52 497 1 50 89 77 124 38z
m650 -248 c67 -24 138 -90 165 -154 24 -56 131 -547 131 -603 0 -92 -75 -213
-159 -256 -85 -43 -196 -43 -279 -1 -38 19 -110 90 -131 129 -6 11 -38 150
-72 309 -67 317 -69 345 -25 431 32 63 106 128 165 146 64 20 147 19 205 -1z
m5004 -268 c116 -15 216 -121 237 -251 8 -52 -94 -576 -125 -640 -12 -24 -44
-63 -71 -88 -173 -155 -444 -64 -490 165 -10 50 -6 77 45 334 58 288 68 323
113 382 44 58 171 118 228 108 11 -2 40 -6 63 -10z m-567 -143 c14 -12 22 -30
22 -48 0 -34 -448 -1049 -475 -1076 -10 -10 -29 -18 -42 -18 -33 0 -76 37 -76
66 0 29 451 1048 476 1075 22 24 65 24 95 1z m979 -562 c11 -11 20 -32 20 -46
0 -43 -379 -1087 -402 -1106 -11 -10 -30 -18 -43 -18 -32 0 -75 37 -75 64 0
39 387 1099 406 1113 26 19 71 16 94 -7z m-5546 -246 c259 -58 481 -112 494
-120 31 -20 31 -85 0 -114 -12 -11 -25 -20 -29 -20 -4 0 -225 50 -491 110
-346 79 -487 115 -495 127 -21 27 -15 72 12 98 13 14 27 25 31 25 5 0 220 -48
478 -106z m4613 -238 c86 -43 150 -136 160 -230 7 -70 -25 -566 -39 -607 -43
-126 -150 -202 -283 -202 -118 0 -217 61 -269 166 -31 61 -33 116 -12 458 15
241 22 270 76 339 83 105 245 139 367 76z m-4964 -72 c60 -20 132 -84 163
-145 28 -55 36 -121 55 -444 11 -192 11 -214 -5 -262 -42 -125 -150 -203 -283
-205 -85 -1 -142 22 -206 81 -78 72 -86 103 -108 434 -22 324 -19 352 40 434
75 104 221 149 344 107z m4059 -51 c9 -10 86 -226 173 -481 153 -451 157 -463
141 -487 -37 -56 -106 -51 -130 7 -41 98 -306 896 -306 919 0 52 87 81 122 42z
m-2949 -13 c109 -41 177 -130 196 -260 5 -36 20 -168 32 -295 22 -226 22 -231
4 -288 -52 -166 -245 -256 -402 -188 -58 26 -136 102 -158 156 -8 18 -29 167
-46 329 -29 279 -30 298 -15 349 48 166 228 257 389 197z m1230 0 c95 -36 171
-122 191 -215 9 -46 56 -503 56 -552 0 -67 -34 -143 -87 -195 -123 -121 -305
-123 -421 -5 -70 72 -78 102 -112 421 -34 325 -32 347 26 433 78 114 220 160
347 113z m1274 -100 c57 -25 105 -69 139 -126 28 -47 144 -548 144 -621 0 -58
-33 -141 -75 -191 -83 -97 -239 -127 -357 -69 -54 26 -109 80 -136 132 -6 11
-38 144 -72 295 -80 357 -79 405 17 511 84 93 222 121 340 69z m-570 -42 l23
-21 0 -493 c0 -458 -1 -493 -18 -514 -22 -28 -84 -30 -113 -4 -18 16 -19 35
-19 515 l0 498 22 21 c29 26 76 26 105 -2z m-2553 -4 c9 -8 18 -25 21 -37 2
-12 18 -235 35 -495 31 -481 31 -502 -6 -516 -51 -20 -101 2 -108 47 -3 17
-17 212 -31 432 -14 220 -28 432 -31 471 -6 65 -4 73 17 93 27 25 81 28 103 5z
m1070 -7 c17 -12 295 -918 296 -963 0 -47 -79 -80 -117 -47 -17 14 -55 129
-163 487 -77 258 -140 473 -140 478 0 5 11 20 25 33 27 27 71 33 99 12z"/>
<path d="M5281 11132 c-51 -25 -92 -83 -98 -134 -3 -25 13 -153 37 -303 46
-293 57 -321 133 -356 73 -33 146 -22 200 29 39 36 57 74 57 115 0 60 -80 548
-94 576 -41 79 -155 115 -235 73z"/>
<path d="M6716 11097 c-22 -12 -48 -34 -58 -48 -27 -35 -168 -514 -168 -567 0
-59 25 -108 72 -142 72 -52 153 -48 222 12 36 32 41 44 117 298 64 212 79 275
76 313 -10 122 -153 196 -261 134z"/>
<path d="M7987 11075 c-78 -27 -117 -86 -117 -177 0 -85 31 -470 41 -510 21
-83 113 -146 194 -133 58 8 105 41 134 95 l25 44 -22 283 c-23 298 -27 316
-79 365 -51 48 -105 59 -176 33z"/>
<path d="M9406 10866 c-56 -21 -103 -72 -117 -128 -12 -45 -10 -56 56 -295 38
-136 77 -267 88 -291 56 -124 256 -123 316 1 12 24 21 56 21 72 0 43 -139 535
-162 572 -39 65 -129 96 -202 69z"/>
<path d="M10174 9521 c-53 -32 -85 -83 -90 -143 -3 -29 -1 -163 4 -298 9 -272
13 -287 78 -336 42 -32 126 -44 174 -24 42 18 98 83 106 124 3 20 2 159 -2
309 -9 268 -9 274 -34 310 -13 20 -41 45 -61 56 -48 28 -132 28 -175 2z"/>
<path d="M9340 8953 c-35 -13 -72 -47 -90 -82 -10 -21 -42 -156 -70 -301 -55
-288 -55 -308 -4 -370 53 -63 142 -81 217 -45 68 32 82 66 137 340 28 138 51
269 51 293 1 58 -40 126 -91 152 -38 19 -115 26 -150 13z"/>
<path d="M6083 7981 c-46 -21 -89 -77 -99 -128 -9 -45 101 -534 133 -591 57
-99 191 -116 274 -33 68 68 68 82 -2 393 -67 301 -77 325 -153 359 -52 24
-100 24 -153 0z"/>
<path d="M7339 7920 c-44 -23 -86 -71 -96 -108 -4 -15 1 -148 11 -297 19 -303
28 -336 95 -380 48 -31 91 -39 143 -25 60 17 93 43 118 95 l21 44 -20 281
c-19 264 -21 284 -45 325 -46 77 -149 107 -227 65z"/>
<path d="M8593 7915 c-57 -34 -87 -86 -87 -149 -1 -42 17 -93 103 -298 88
-212 109 -253 141 -282 111 -100 290 -21 292 128 1 54 -190 526 -230 570 -57
61 -147 74 -219 31z"/>
<path d="M4862 7903 c-88 -43 -101 -100 -102 -456 0 -256 4 -276 68 -325 27
-20 49 -27 98 -30 75 -5 120 17 162 80 l26 40 1 302 0 302 -29 38 c-16 21 -44
44 -62 52 -45 19 -121 17 -162 -3z"/>
<path d="M9585 7206 c-41 -18 -82 -68 -95 -116 -9 -32 -3 -84 31 -297 23 -142
49 -277 59 -300 41 -93 170 -129 257 -71 26 17 49 44 64 74 l22 47 -42 271
c-28 174 -50 286 -63 314 -37 79 -147 116 -233 78z"/>
<path d="M5295 6376 c-41 -18 -82 -67 -96 -117 -11 -36 -7 -65 41 -297 61
-293 62 -297 98 -335 40 -42 75 -57 134 -57 86 0 161 62 173 145 7 44 -93 533
-119 583 -42 80 -146 115 -231 78z"/>
<path d="M10350 6103 c-35 -13 -72 -47 -89 -81 -10 -21 -42 -154 -70 -297 -57
-283 -58 -308 -10 -369 71 -90 231 -85 288 8 32 52 133 560 121 611 -19 84
-84 135 -169 134 -31 0 -63 -3 -71 -6z"/>
<path d="M9742 4929 c-49 -25 -88 -77 -96 -129 -7 -47 -26 -375 -28 -476 -1
-90 12 -126 62 -168 86 -72 226 -43 273 56 22 47 54 556 38 609 -15 49 -45 86
-92 109 -50 26 -103 25 -157 -1z"/>
<path d="M4808 4840 c-39 -21 -70 -59 -88 -106 -16 -40 15 -532 36 -591 30
-84 128 -137 209 -113 58 18 90 44 115 95 l22 46 -17 277 c-19 294 -24 320
-77 369 -50 47 -136 56 -200 23z"/>
<path d="M5924 4781 c-22 -10 -50 -31 -62 -45 -45 -57 -46 -77 -17 -354 14
-141 31 -273 36 -293 12 -46 74 -104 126 -118 77 -21 164 19 202 92 l24 47
-27 268 c-15 147 -32 281 -37 299 -15 47 -47 83 -93 104 -52 24 -100 24 -152
0z"/>
<path d="M7154 4781 c-45 -20 -80 -63 -95 -114 -10 -35 32 -496 53 -575 13
-51 70 -106 125 -121 78 -21 164 19 202 93 l25 49 -30 287 c-29 279 -31 289
-59 325 -52 69 -142 92 -221 56z"/>
<path d="M8415 4691 c-70 -32 -105 -86 -105 -160 0 -70 109 -533 135 -572 26
-39 77 -69 136 -76 79 -11 172 63 185 149 6 33 -92 506 -117 569 -22 55 -105
109 -166 109 -15 0 -46 -9 -68 -19z"/>
</g>
</svg>
